<svg id="visual" viewBox="0 0 900 600" width="900" height="600" xmlns="http://www.w3.org/2000/svg" xmlns:xlink="http://www.w3.org/1999/xlink" version="1.1"><path d="M0 271L75 280C150 289 300 307 450 313C600 319 750 313 825 310L900 307L900 0L825 0C750 0 600 0 450 0C300 0 150 0 75 0L0 0Z" fill="#ffffff"></path><path d="M0 475L75 474C150 473 300 471 450 479C600 487 750 505 825 514L900 523L900 305L825 308C750 311 600 317 450 311C300 305 150 287 75 278L0 269Z" fill="#acafff"></path><path d="M0 601L75 601C150 601 300 601 450 601C600 601 750 601 825 601L900 601L900 521L825 512C750 503 600 485 450 477C300 469 150 471 75 472L0 473Z" fill="#0066ff"></path></svg>